<?xml version="1.0" encoding="UTF-8"?>
<svg id="_レイヤー_1" data-name="レイヤー 1" xmlns="http://www.w3.org/2000/svg" viewBox="0 0 40 40">
  <defs>
    <style>
      .cls-1 {
        fill: #9575cd;
      }
    </style>
  </defs>
  <path class="cls-1" d="M14.7,3.92c.53.49.98,1.3,1.01,2.03,0,.07,0,.14,0,.21,0,.04,0,.08,0,.12,0,.12,0,.25,0,.37,0,.04,0,.08,0,.13,0,.65-.03,1.27-.15,1.9q-.01.06-.02.12c-.41,2.22-1.38,4.4-2.25,6.48-.09.21-.17.41-.24.63-.13.34-.27.67-.42,1-.12.26-.22.52-.32.79-.14.37-.29.74-.44,1.1-.06.14-.11.28-.17.42-.16.4-.33.8-.51,1.19-.06.13-.11.27-.16.41-.1.26-.2.51-.31.76-.04.1-.07.2-.1.31.28-.41.55-.82.81-1.24.22-.35.45-.71.69-1.05.11-.16.21-.33.32-.49.22-.35.45-.69.68-1.04q.45-.66.88-1.33c.45-.7.92-1.37,1.4-2.05.12-.17.23-.33.35-.5.6-.87,1.22-1.72,1.88-2.54.09-.11.18-.23.27-.34.02-.03.04-.05.07-.08.17-.22.34-.44.49-.67.02-.03.03-.02.06-.05.02-.02.15-.14.1-.06.02-.06.04-.03.05-.06.06-.11.12-.18.2-.27.19-.21.37-.43.55-.65.11-.13.23-.25.35-.37.07-.07.13-.14.19-.22.41-.46.85-.88,1.33-1.26q.05-.05.11-.09c.25-.21.51-.39.78-.56.03-.02.07-.04.1-.07.49-.31.91-.49,1.49-.49q.05,0,.11,0c.32,0,.56.09.8.3.44.51.52.98.48,1.64-.04.56-.15,1.07-.32,1.61-.02.07-.04.14-.06.21-.3.98-.65,1.93-1.02,2.89-.13.34-.26.69-.39,1.03-.12.33-.24.65-.36.98-.15.4-.3.8-.44,1.2-.17.46-.4,1.11-.58,1.57-.03,0,.07.06.04.06,0,.21-.05,0-.17.23.02-.04.04-.07.05-.11.3-.59.67-1.15,1.04-1.7.08-.12.16-.24.24-.36.2-.3.4-.59.61-.89.24-.33.46-.67.69-1.01.27-.41.56-.82.85-1.22.14-.19.27-.38.41-.57.36-.52.73-1.03,1.12-1.53.02-.03.04-.05.06-.08.48-.62.97-1.22,1.48-1.81q.13-.14.22-.3h.1s.03-.06.04-.08c.06-.11.12-.19.2-.28.03-.03.06-.07.09-.1.07-.08.14-.16.21-.24q.06-.06.12-.13s.07-.08.11-.12q.09-.09.13-.2h.14q.02-.05.03-.1c.07-.16.16-.25.28-.37.02-.02.04-.04.07-.07.05-.05.09-.09.14-.14.07-.07.14-.14.21-.21.87-.86,1.99-1.84,3.29-1.86.45.02.82.14,1.15.44.36.41.45.83.43,1.36,0,.06,0,.11,0,.17-.01.41-.04.8-.16,1.2-.01.04-.03.09-.04.13-.52,1.67-1.19,3.29-1.89,4.9-.23.54-.46,1.07-.66,1.62-.11.3-.23.59-.35.88-.01.03-.02.06-.04.09-.09.21-.17.42-.26.62q-.47,1.11-.89,2.23c-.12.34-.25.67-.38.99-.37.92-.73,1.84-1.03,2.78-.08.25-.17.5-.27.75-.06.15-.11.3-.17.45-.02.05-.04.11-.06.16-.04.12-.08.23-.12.35-.07.2-.13.4-.2.6-.11.33-.23.66-.34,1-.07.2-.13.4-.2.6-.59,1.73-1.14,3.46-1.12,5.31,0,.14,0,.28,0,.42,0,.97.09,1.84.67,2.65.16.23.19.37.16.65-.1.23-.23.34-.46.43-.45.13-.93.07-1.35-.15-.76-.47-1.13-1.12-1.35-1.96-.11-.57-.09-1.14-.09-1.71v-.14c0-1.42.06-2.87.6-4.2.11-.26.18-.53.24-.8.2-.79.47-1.56.74-2.33.02-.05.03-.1.05-.15.09-.27.19-.53.28-.8.01-.04.03-.08.04-.12.11-.31.23-.62.34-.93q.03-.08.06-.17c.48-1.31,1.01-2.61,1.53-3.9.18-.44.36-.89.53-1.34.17-.44.35-.89.54-1.32.12-.29.24-.59.36-.88.31-.78.63-1.55.99-2.3.15-.32.29-.65.42-.98.02-.04.03-.08.05-.12.01-.03.03-.07.04-.1.05-.09.19-.49.27-.57.08-.09-.05.26-.03.14.05-.26.15-.5.25-.75.2-.51.39-1.02.56-1.53q.03-.08.06-.17c.15-.46.28-.97.28-1.45-.41.27-.79.56-1.16.89-.05.05-.11.1-.16.14-.26.22-.51.46-.75.71-.04.04-.08.08-.12.12-.21.21-.4.42-.59.64-.1.11-.2.21-.31.31-.21.2-.39.42-.57.64-.1.13-.21.25-.32.37-.18.2-.36.41-.53.62-.11.13-.22.26-.33.38-.27.31-.53.63-.78.97-.1.14-.21.27-.32.4-.26.33-.51.67-.77,1.01-.07.1-.15.2-.22.3-.23.3-.45.6-.66.91-.12.17-.24.34-.36.51-.02.03-.05.07-.07.11-.12.17-.25.35-.37.52-.43.59-.84,1.2-1.24,1.81-.1.15-.19.29-.29.44-.71,1.06-1.38,2.14-1.99,3.27-.11.2-.22.39-.33.58-.16.27-.31.54-.46.82-.01.03-.03.06-.05.08-.7,1.31-1.38,2.64-2,3.99-.19.4-.38.81-.57,1.21-.05.11-.1.22-.15.32-.01.03-.03.06-.04.09-.19.41-.37.83-.53,1.26-.09.23-.18.37-.36.53-.04.04-.08.07-.12.11-.29.14-.6.13-.91.05-.34-.14-.62-.35-.78-.68-.22-1.05.6-2.23,1.03-3.14.2-.42.39-.84.55-1.27.17-.45.37-.89.57-1.33.15-.34.29-.68.42-1.02.09-.24.2-.47.3-.71.2-.45.39-.9.57-1.36.15-.38.31-.76.47-1.15.18-.44.37-.89.55-1.33.27-.66.54-1.31.82-1.97.08-.19.16-.38.24-.57.05-.12.1-.24.15-.37q.54-1.28,1.05-2.57c.13-.32.25-.64.38-.96.37-.91.73-1.82,1.06-2.75.04-.11.08-.22.13-.33.08-.22.11-.45.14-.68,0-.04.01-.09.02-.13.01-.11.03-.21.04-.32-.74.16-1.33.7-1.85,1.23-.08.08-.17.16-.26.23-.14.12-.25.24-.36.38-.13.15-.27.28-.41.42-.22.22-.43.45-.63.7-.12.15-.24.29-.36.44-.45.54-.87,1.09-1.28,1.66-.1.14-.19.27-.29.41-.03.04-.05.07-.08.11-.19.27-.39.53-.58.79-.22.3-.44.59-.66.89-.02.03-.05.06-.07.1-.22.31-.43.63-.64.94-.1.15-.2.3-.3.45-.04.06-.08.12-.12.18-.08.12-.16.24-.24.36-.02.03-.04.06-.06.09-.04.06-.08.12-.12.18-.1.15-.21.31-.31.46-.02.03-.04.06-.06.1-.04.06-.08.12-.12.18-.12.19-.25.37-.38.55-.37.53-.72,1.07-1.06,1.63-.2.33-.41.65-.63.97-.34.51-.67,1.03-.98,1.56-.09.14-.17.28-.26.43-.28.45-.54.9-.81,1.36-.02.03-.03.05-.05.08-.37.64-.75,1.27-1.11,1.91-.15.26-.31.52-.47.78-.1.17-.2.34-.29.52-.1.17-.2.34-.3.51-.22.38-.44.76-.66,1.15-.12.21-.24.42-.37.63-.14.24-.28.48-.41.72-.02.05-.05.09-.07.14-.1.19-.2.37-.3.56-.29.54-.59,1.07-.9,1.6-.12.21-.24.42-.36.62t-.05.1c-.07.13-.15.26-.21.39q-.03.06-.06.12s-.03.06-.05.09c-.09.12-.17.16-.3.22-.46.06-.89,0-1.29-.24-.12-.1-.21-.2-.29-.33-.02-.03-.04-.05-.05-.08-.06-.16-.06-.32-.06-.48,0-.03,0-.06,0-.1,0-.6.34-1.19.6-1.72.09-.19.18-.38.27-.57.02-.04.04-.07.05-.11.2-.42.38-.84.57-1.27.09-.2.18-.4.28-.61.16-.35.32-.7.47-1.06.21-.48.43-.97.65-1.45.16-.35.31-.69.46-1.04.07-.15.13-.31.2-.46.38-.84.75-1.68,1.1-2.53.1-.24.21-.49.32-.73.38-.82.7-1.66,1.02-2.5.21-.55.43-1.11.67-1.65.21-.49.41-.99.58-1.5.19-.56.42-1.12.66-1.66.12-.28.22-.56.32-.85.06-.16.12-.32.2-.47.09-.18.15-.35.2-.54.07-.24.16-.47.25-.71.02-.05.04-.1.06-.15.09-.25.19-.5.3-.75,0-.02.03-.05.03-.06q.02-.06.04-.12c.06-.29.17-.56.27-.83.26-.67.42-1.36.59-2.06.04-.15.07-.3.11-.44q.01-.05.03-.11c.05-.19.1-.37.16-.56.08-.27.1-.54.11-.82,0-.06,0-.12,0-.18.01-.41-.04-.73-.2-1.11-.01-.03-.03-.06-.04-.1-.1-.17-.26-.22-.44-.29-.14-.03-.28-.03-.43-.02-.04,0-.08,0-.12,0-1.99.07-3.83,1.59-5.27,2.83-.03.03-.06.05-.09.08-.65.56-1.31,1.15-1.84,1.83-.08.1-.17.21-.25.31-.54.64-1.02,1.34-1.44,2.08-.04.06-.08.13-.12.19-.75,1.2-1.54,2.73-1.23,4.2.1.29.23.42.49.57.05.02.09.03.14.05-.08.21-.23.33-.43.43-.52.04-.94,0-1.35-.35C.22,16.57.03,16.2,0,15.62c-.02-1.15.44-2.27.97-3.27.02-.03.03-.06.05-.09.27-.5.57-.97.9-1.43q.04-.05.08-.11c.35-.48.71-.94,1.1-1.39.09-.11.18-.22.27-.33.46-.56.97-1.07,1.48-1.58.06-.06.12-.12.18-.18.33-.34.67-.65,1.04-.94.05-.04.1-.09.15-.13,2.05-1.79,5.84-4.27,8.48-2.25Z"/>
  <path class="cls-1" d="M33.7,24.35c.06,0,.12,0,.18,0q1.12,0,1.65.15s.08.02.11.03c.93.27,1.69.79,2.4,1.45.1.09.2.17.3.25.58.51.95,1.27,1.25,1.97.01.03.03.07.05.1.29.7.36,1.34.36,2.09q0,.07,0,.14c0,.83-.12,1.53-.42,2.3-.02.05-.04.11-.06.16-.11.3-.23.58-.4.85-.02.03-.04.06-.06.1-.19.3-.42.55-.67.8-.04.05-.08.1-.12.15-.19.22-.42.39-.65.57-.03.02-.05.04-.08.06-.64.49-1.35.83-2.12,1.08-.06.02-.11.04-.17.06-1,.31-2.09.12-3.07-.2-.03-.01-.06-.02-.1-.03-.5-.17-.94-.39-1.38-.68-.03-.02-.06-.04-.08-.05-1.27-.82-2.1-2.16-2.44-3.62,0-.04-.02-.07-.03-.11-.08-.37-.08-.73-.08-1.11,0-.1,0-.21,0-.31,0-.64.05-1.26.28-1.86.02-.05.03-.09.05-.14.35-.93.86-1.75,1.55-2.47.03-.03.06-.07.09-.1.64-.66,1.55-1.3,2.48-1.45q.11-.02.26-.09c.3-.11.61-.09.92-.08ZM32.05,25.89c-.05.03-.11.06-.16.08-.12.06-.24.13-.36.2q-.05.03-.11.06c-.2.12-.35.25-.51.41-.11.11-.21.21-.32.32-.03.03-.06.06-.08.08-.21.21-.17.17-.29.26-.04.07-.11.15-.15.22-.08.15-.16.3-.25.45-.21.34-.35.67-.48,1.05-.01.04-.03.09-.04.13-.16.51-.16,1.02-.16,1.55,0,.05,0,.11,0,.16,0,1.23.56,2.4,1.41,3.26q.45.46.99.8c.05.03.11.05.16.08.38.19.76.33,1.17.44t.09.03c.85.24,1.77.3,2.56-.14.29-.15.61-.25.92-.37,0-.03.05-.04.05-.07.03-.01.02-.05.05-.06.16-.07.29-.17.43-.27t.08-.06c.32-.25.62-.54.87-.86q.09-.11.18-.15c.52-.9.77-1.79.77-2.82,0-.1,0-.21,0-.31,0-.38-.03-.7-.16-1.06-.02-.06-.03-.13-.05-.19-.2-.85-.55-1.58-1.19-2.19-.05-.02-.02-.06-.07-.07,0-.03-.07-.04-.07-.07q-.08-.08-.18-.16t-.27-.25c-.1-.09-.21-.14-.33-.19-.1-.05-.19-.1-.29-.15-.03-.02-.06-.03-.09-.05-.06-.03-.11-.06-.17-.1-.1-.05-.19-.1-.29-.15q-.07-.03-.13-.06c-.48-.2-.94-.22-1.45-.21-.14,0-.28,0-.42,0-.64,0-1.11.12-1.66.43Z"/>
  <path class="cls-1" d="M31.29,31.13c.28.14.36.3.47.58.25.58.63.92,1.2,1.18.63.23,1.47.25,2.1-.01.26-.15.46-.29.66-.51.03,0,.16-.21.19-.21-.02.04.02-.04,0,0,.07-.14.1-.14.18-.28.03-.05.06-.11.1-.16.13-.2.24-.35.43-.49.18-.03.36-.04.52.05.1.08.18.16.24.28.03.47-.2.87-.49,1.23-.1.12-.21.23-.32.34-.04.04-.08.08-.12.13-.45.42-1.01.91-1.64.92-.02.02-.03-.02-.05,0-.11,0-.23.01-.34.01q-.05,0-.1,0c-.07,0-.15,0-.22,0-.11,0-.22,0-.33,0-.88,0-1.53-.31-2.2-.88-.03-.03-.07-.05-.1-.08-.4-.32-.69-.77-.85-1.25q-.04-.5.09-.72c.18-.15.35-.18.58-.13Z"/>
  <path class="cls-1" d="M35.91,28.32c.24.11.36.27.48.5.11.31.06.62-.06.93-.09.19-.2.31-.38.43-.22.03-.42.03-.61-.07-.28-.32-.36-.59-.35-1.01.02-.28.13-.48.33-.68.21-.12.35-.14.59-.1Z"/>
  <path class="cls-1" d="M32.72,28.32c.21.07.32.22.43.4.12.33.09.71-.03,1.03-.11.2-.24.32-.44.42-.2.03-.31.04-.49-.06-.25-.2-.39-.4-.44-.73-.02-.38.09-.62.32-.91.19-.19.39-.2.65-.16Z"/>
</svg>