<svg width="40" height="40" viewBox="0 0 40 40" fill="none" xmlns="http://www.w3.org/2000/svg">
<g clip-path="url(#clip0_203_754)">
<rect width="40" height="40" fill="#9575CD"/>
<path d="M0 0C13.2 0 26.4 0 40 0C40 13.2 40 26.4 40 40C26.8 40 13.6 40 0 40C0 26.8 0 13.6 0 0Z" fill="white"/>
<path d="M14.7026 3.91214C15.2296 4.40262 15.6792 5.21413 15.7112 5.94665C15.7122 6.01756 15.7128 6.08847 15.7132 6.15938C15.7136 6.19755 15.7139 6.23572 15.7142 6.27504C15.7151 6.39897 15.7154 6.52288 15.7155 6.64681C15.7155 6.68896 15.7156 6.73111 15.7156 6.77453C15.7151 7.41998 15.685 8.04361 15.5606 8.67845C15.5498 8.73653 15.5498 8.73653 15.5389 8.79577C15.1265 11.0192 14.1602 13.1973 13.2884 15.2742C13.2019 15.481 13.1219 15.6884 13.0463 15.8994C12.9211 16.2417 12.775 16.5727 12.6214 16.9031C12.5021 17.1617 12.3976 17.4237 12.2966 17.69C12.155 18.0596 12.0027 18.4251 11.8527 18.7914C11.7952 18.932 11.7378 19.0726 11.6805 19.2133C11.5177 19.6118 11.3548 20.0093 11.1733 20.3997C11.1124 20.5328 11.0598 20.6685 11.0087 20.8057C10.9118 21.0628 10.8079 21.316 10.6997 21.5685C10.6583 21.6728 10.6273 21.7717 10.6036 21.8811C10.8801 21.4721 11.1497 21.0591 11.4139 20.6419C11.6385 20.2872 11.8662 19.9352 12.1014 19.5873C12.2101 19.4254 12.3151 19.2611 12.4202 19.0968C12.6436 18.7479 12.8731 18.4033 13.1036 18.0592C13.5488 17.3949 13.5488 17.3949 13.9847 16.7246C14.4311 16.0282 14.9053 15.3499 15.3841 14.6754C15.5018 14.5094 15.6178 14.3422 15.7333 14.1746C16.3322 13.308 16.9539 12.4577 17.6101 11.6336C17.7006 11.5195 17.791 11.4053 17.8812 11.291C17.9029 11.2636 17.9245 11.2361 17.9469 11.2079C18.1196 10.9883 18.2822 10.7629 18.4414 10.5332C18.4659 10.5031 18.4747 10.511 18.5 10.48C18.5243 10.458 18.6497 10.34 18.6 10.42C18.62 10.36 18.6366 10.386 18.6497 10.3571C18.7069 10.2502 18.7678 10.1739 18.8493 10.0845C19.0395 9.87247 19.2202 9.65321 19.4008 9.43306C19.5134 9.30182 19.632 9.18128 19.7549 9.05976C19.82 8.98772 19.8845 8.91523 19.9485 8.8423C20.3617 8.38184 20.7939 7.96568 21.2801 7.5822C21.3347 7.53631 21.3347 7.53631 21.3904 7.48948C21.6378 7.283 21.8981 7.1024 22.1679 6.92684C22.2014 6.90491 22.235 6.88298 22.2696 6.86039C22.7559 6.54876 23.176 6.37375 23.7586 6.37275C23.8126 6.371 23.8126 6.371 23.8677 6.36921C24.1872 6.36757 24.4241 6.4624 24.6707 6.66487C25.1107 7.17796 25.1883 7.64501 25.1517 8.30317C25.1073 8.86291 24.9967 9.37557 24.8281 9.90876C24.8066 9.9779 24.7851 10.0471 24.7637 10.1162C24.4598 11.0914 24.113 12.049 23.7478 13.0028C23.617 13.3448 23.4892 13.688 23.3624 14.0316C23.2421 14.3576 23.1216 14.6836 22.999 15.0087C22.8489 15.4078 22.7027 15.8083 22.5562 16.2086C22.3872 16.6704 22.1541 17.3201 21.98 17.78C21.9485 17.78 22.0524 17.84 22.02 17.84C22.02 18.0486 21.9668 17.84 21.8521 18.0681C21.8702 18.0309 21.8883 17.9936 21.907 17.9553C22.2098 17.3603 22.5804 16.8098 22.9498 16.2549C23.0287 16.1364 23.1072 16.0177 23.1854 15.8987C23.383 15.5987 23.5871 15.3042 23.7979 15.0133C24.0354 14.6825 24.2587 14.3421 24.4833 14.0025C24.7576 13.5881 25.0418 13.1813 25.3315 12.7775C25.4675 12.5875 25.603 12.3972 25.7366 12.2055C26.0986 11.6877 26.4677 11.1781 26.8567 10.6803C26.8772 10.654 26.8976 10.6278 26.9187 10.6007C27.3973 9.98566 27.8843 9.37747 28.3965 8.78998C28.5217 8.64819 28.5217 8.64819 28.6203 8.4878C28.6517 8.4878 28.6832 8.4878 28.7156 8.4878C28.7283 8.45991 28.741 8.43201 28.7541 8.40327C28.8121 8.29489 28.8748 8.21557 28.9569 8.12437C28.9861 8.09168 29.0152 8.059 29.0453 8.02532C29.1169 7.94635 29.1885 7.86741 29.2602 7.78849C29.3179 7.72472 29.3179 7.72472 29.3769 7.65966C29.4132 7.61996 29.4494 7.58027 29.4867 7.53938C29.5753 7.44554 29.5753 7.44554 29.6212 7.34389C29.6684 7.34389 29.7155 7.34389 29.7642 7.34389C29.7809 7.29225 29.7809 7.29225 29.7981 7.23958C29.8703 7.08205 29.9571 6.99021 30.0797 6.868C30.1016 6.84608 30.1235 6.82416 30.1461 6.80158C30.1925 6.75526 30.2391 6.70912 30.2859 6.66315C30.3557 6.59447 30.4248 6.52519 30.4939 6.45579C31.36 5.59235 32.4872 4.61957 33.7798 4.5973C34.2294 4.61405 34.5963 4.73381 34.9326 5.03818C35.2923 5.45006 35.3792 5.86693 35.3646 6.40254C35.3636 6.45971 35.3625 6.51688 35.3615 6.57579C35.3505 6.99057 35.3204 7.37462 35.1978 7.77286C35.1844 7.81624 35.1711 7.85963 35.1573 7.90432C34.6325 9.57895 33.9673 11.198 33.2707 12.8069C33.0386 13.343 32.808 13.8771 32.6083 14.4261C32.4984 14.7218 32.3755 15.0124 32.2546 15.3036C32.2422 15.3334 32.2298 15.3632 32.2171 15.3938C32.1305 15.6022 32.0436 15.8104 31.9567 16.0186C31.4863 17.1265 31.4863 17.1265 31.063 18.2528C30.9469 18.5887 30.8178 18.9183 30.6847 19.2477C30.3147 20.1649 29.9549 21.0855 29.6515 22.0271C29.5698 22.28 29.4798 22.5269 29.3793 22.773C29.3198 22.9201 29.2661 23.0691 29.2131 23.2187C29.1943 23.2713 29.1756 23.324 29.1563 23.3782C29.116 23.4942 29.0766 23.6104 29.0379 23.7268C28.9711 23.9275 28.9032 24.1277 28.8351 24.3279C28.7222 24.6594 28.6101 24.9911 28.4983 25.3229C28.4312 25.522 28.3638 25.721 28.2959 25.9199C27.7052 27.6503 27.1582 29.3799 27.1743 31.2251C27.1755 31.3642 27.1753 31.5033 27.175 31.6425C27.1764 32.6089 27.2663 33.4859 27.8432 34.2912C28 34.5189 28.0283 34.6643 28.0006 34.9408C27.8991 35.1693 27.7683 35.2827 27.5374 35.3726C27.0827 35.503 26.6056 35.4444 26.1894 35.2268C25.4281 34.7599 25.0619 34.111 24.8418 33.2661C24.7355 32.7007 24.75 32.1269 24.7506 31.5538C24.7506 31.4838 24.7506 31.4838 24.7506 31.4125C24.7525 29.9927 24.8088 28.5422 25.3523 27.2105C25.4586 26.9464 25.5289 26.6818 25.5966 26.4062C25.7936 25.614 26.0676 24.845 26.3324 24.0736C26.3497 24.0231 26.367 23.9726 26.3849 23.9205C26.4767 23.6531 26.5705 23.3865 26.6661 23.1204C26.6798 23.0821 26.6934 23.0439 26.7076 23.0044C26.8193 22.693 26.9329 22.3822 27.0474 22.0718C27.078 21.9885 27.078 21.9885 27.1093 21.9035C27.5938 20.5913 28.116 19.2949 28.6441 17.9998C28.8254 17.5552 29.0028 17.1093 29.1773 16.662C29.3507 16.2179 29.5292 15.7765 29.7143 15.3372C29.8375 15.0441 29.9577 14.75 30.0758 14.4548C30.3872 13.6775 30.7061 12.9091 31.0639 12.1517C31.215 11.8308 31.353 11.5046 31.4871 11.1762C31.503 11.138 31.5189 11.0997 31.5353 11.0603C31.5489 11.027 31.5625 10.9937 31.5765 10.9594C31.623 10.871 31.7686 10.4657 31.8428 10.3943C31.9273 10.3064 31.791 10.6561 31.8101 10.5368C31.8621 10.2719 31.9592 10.0329 32.0609 9.78364C32.2634 9.27689 32.4498 8.76661 32.6239 8.24949C32.6526 8.16608 32.6526 8.16608 32.6819 8.08099C32.8329 7.6211 32.9576 7.11513 32.9576 6.62894C32.5473 6.90088 32.1663 7.18973 31.7961 7.51419C31.7414 7.56201 31.6864 7.60947 31.6312 7.65664C31.3694 7.88158 31.1246 8.12113 30.8813 8.36567C30.8426 8.40416 30.8039 8.44265 30.7641 8.48231C30.5582 8.68852 30.3607 8.89868 30.1708 9.11961C30.0743 9.22953 29.9708 9.33082 29.8654 9.43213C29.6601 9.63498 29.4778 9.84878 29.2978 10.0741C29.1947 10.2006 29.0877 10.3215 28.9777 10.442C28.7945 10.6432 28.6219 10.8511 28.4508 11.0627C28.344 11.1928 28.2349 11.3204 28.1247 11.4476C27.8529 11.7611 27.596 12.0825 27.3456 12.4132C27.2419 12.5488 27.1355 12.6823 27.0295 12.8162C26.768 13.1475 26.5149 13.4849 26.2627 13.8233C26.1881 13.9232 26.113 14.0229 26.0379 14.1225C25.8118 14.4222 25.587 14.722 25.3736 15.0309C25.2553 15.2019 25.1356 15.372 25.0157 15.5419C24.9911 15.5769 24.9665 15.6118 24.9412 15.6478C24.8179 15.8224 24.6938 15.9963 24.5674 16.1686C24.1355 16.7579 23.7311 17.3642 23.3284 17.9736C23.2315 18.12 23.1341 18.2659 23.0363 18.4117C22.3243 19.4742 21.6542 20.5533 21.0433 21.6772C20.9367 21.8725 20.8273 22.0653 20.7117 22.2556C20.5494 22.5241 20.4002 22.7989 20.2524 23.0757C20.2376 23.1035 20.2227 23.1312 20.2074 23.1598C19.5072 24.4718 18.8319 25.7951 18.2116 27.1468C18.0254 27.5516 17.8361 27.9549 17.646 28.3579C17.5952 28.4659 17.5445 28.574 17.4939 28.6821C17.4806 28.7104 17.4673 28.7388 17.4536 28.768C17.2604 29.1808 17.0793 29.5964 16.9248 30.0254C16.8398 30.2526 16.7491 30.3934 16.5615 30.5558C16.5222 30.5922 16.4828 30.6286 16.4423 30.666C16.155 30.8046 15.8385 30.7954 15.5321 30.7133C15.1966 30.5764 14.913 30.3593 14.7503 30.0315C14.5332 28.9841 15.3486 27.8043 15.7766 26.8868C15.9718 26.4678 16.1618 26.0495 16.327 25.6176C16.5002 25.1677 16.6991 24.7286 16.8947 24.2881C17.0441 23.9508 17.1844 23.6123 17.3148 23.267C17.4078 23.0277 17.5137 22.7944 17.619 22.5603C17.8195 22.1098 18.0084 21.656 18.1897 21.1974C18.3414 20.8141 18.4975 20.4328 18.6557 20.0521C18.8402 19.6079 19.0231 19.1632 19.2038 18.7175C19.4707 18.06 19.7455 17.4059 20.0208 16.7519C20.1009 16.5612 20.1805 16.3702 20.26 16.1792C20.3109 16.0569 20.3619 15.9346 20.4129 15.8124C20.9484 14.53 20.9484 14.53 21.4625 13.239C21.5878 12.9167 21.7151 12.5953 21.8445 12.2746C22.2117 11.3637 22.5704 10.4515 22.9 9.52624C22.9406 9.41473 22.9841 9.30519 23.0288 9.1953C23.1124 8.97392 23.1407 8.7452 23.1718 8.51163C23.1779 8.46789 23.1841 8.42414 23.1905 8.37907C23.2055 8.27237 23.2201 8.16564 23.2343 8.05883C22.4912 8.21843 21.9055 8.75511 21.3872 9.28635C21.3034 9.37011 21.221 9.44543 21.1282 9.51852C20.9898 9.63537 20.8811 9.7598 20.7642 9.8974C20.6341 10.0424 20.4957 10.1775 20.3567 10.3139C20.1321 10.5357 19.9245 10.763 19.7281 11.0106C19.6102 11.1591 19.4897 11.305 19.3686 11.4509C18.9212 11.9901 18.4958 12.5422 18.0867 13.1111C17.9895 13.2462 17.8921 13.3813 17.7948 13.5163C17.7684 13.5528 17.7421 13.5893 17.7149 13.627C17.5227 13.8931 17.3285 14.1578 17.1334 14.4219C16.9141 14.7191 16.6952 15.0166 16.4781 15.3155C16.4551 15.347 16.4321 15.3784 16.4084 15.4108C16.1853 15.7189 15.9761 16.0363 15.766 16.3534C15.666 16.5041 15.5656 16.6546 15.4652 16.805C15.4255 16.8646 15.3858 16.9242 15.3461 16.9838C15.2666 17.1029 15.1872 17.2221 15.1078 17.3412C15.0881 17.3707 15.0684 17.4003 15.0481 17.4307C15.0086 17.4899 14.9691 17.5492 14.9296 17.6084C14.827 17.7624 14.7244 17.9164 14.6219 18.0704C14.6008 18.1022 14.5796 18.134 14.5578 18.1667C14.5178 18.2269 14.4777 18.2871 14.4377 18.3473C14.3136 18.5338 14.1871 18.7183 14.0592 18.9022C13.6893 19.435 13.3368 19.975 12.9981 20.5281C12.7963 20.8553 12.585 21.1752 12.3701 21.4939C12.0262 22.0046 11.7035 22.5261 11.3871 23.0541C11.301 23.1972 11.2131 23.3391 11.1249 23.4808C10.849 23.9285 10.584 24.3829 10.3176 24.8362C10.3016 24.8635 10.2855 24.8908 10.269 24.919C9.89573 25.5541 9.52325 26.1896 9.15559 26.828C9.00383 27.0906 8.8455 27.3484 8.68534 27.6059C8.58252 27.7754 8.48888 27.9488 8.39527 28.1235C8.29982 28.297 8.19933 28.4671 8.09831 28.6374C7.87354 29.0165 7.65626 29.3995 7.44079 29.784C7.32154 29.9962 7.2008 30.207 7.07467 30.4153C6.93107 30.653 6.79744 30.8954 6.66543 31.1397C6.64095 31.1848 6.61647 31.2298 6.59125 31.2762C6.49 31.4626 6.38899 31.6491 6.28806 31.8356C5.99609 32.3751 5.69864 32.9103 5.38952 33.4402C5.26874 33.6474 5.15042 33.8559 5.03297 34.065C5.00644 34.112 5.00644 34.112 4.97936 34.16C4.90596 34.2904 4.83397 34.4212 4.76524 34.5541C4.73556 34.6114 4.73557 34.6114 4.70529 34.6697C4.68981 34.701 4.67432 34.7323 4.65837 34.7645C4.57237 34.88 4.49032 34.9278 4.35973 34.9885C3.90136 35.0527 3.47116 34.9957 3.07283 34.7502C2.95749 34.6495 2.86763 34.5464 2.78685 34.4165C2.76922 34.3894 2.75158 34.3623 2.73342 34.3344C2.67193 34.1751 2.67204 34.019 2.67067 33.8505C2.6691 33.8183 2.66754 33.7861 2.66592 33.753C2.65986 33.1506 3.00781 32.563 3.26418 32.0327C3.35506 31.8446 3.44482 31.656 3.53457 31.4674C3.55234 31.4301 3.57011 31.3927 3.58842 31.3543C3.78679 30.9364 3.97174 30.513 4.15605 30.0887C4.24449 29.8852 4.3364 29.684 4.43123 29.4834C4.59613 29.1341 4.75065 28.7805 4.90547 28.4267C5.11764 27.9427 5.33513 27.4613 5.55383 26.9803C5.71069 26.6349 5.86308 26.2878 6.01179 25.9388C6.07749 25.7851 6.14476 25.6322 6.21298 25.4797C6.58886 24.6391 6.96067 23.7968 7.31597 22.9472C7.41837 22.7033 7.52271 22.4608 7.63303 22.2204C8.00843 21.4007 8.33485 20.5651 8.65658 19.7231C8.86881 19.1682 9.08784 18.6176 9.32202 18.0716C9.53345 17.5778 9.72872 17.0828 9.90308 16.5746C10.0979 16.0112 10.3229 15.4594 10.5619 14.9134C10.6829 14.6355 10.7854 14.3535 10.881 14.066C10.937 13.9011 10.9985 13.7475 11.0799 13.5933C11.1711 13.4169 11.226 13.2402 11.28 13.0496C11.352 12.8085 11.4438 12.5746 11.533 12.3396C11.5516 12.29 11.5703 12.2404 11.5894 12.1892C11.6843 11.9378 11.782 11.6888 11.8905 11.4429C11.9 11.42 11.9158 11.3926 11.92 11.38C11.94 11.32 11.94 11.32 11.96 11.26C12.0172 10.9708 12.1251 10.7035 12.2323 10.4298C12.4895 9.76262 12.6566 9.06507 12.8259 8.37162C12.8621 8.22369 12.8985 8.0758 12.935 7.92795C12.9479 7.87559 12.9479 7.87559 12.9611 7.82218C13.008 7.63376 13.059 7.44776 13.1169 7.26234C13.2015 6.98916 13.2142 6.72298 13.2251 6.43829C13.2281 6.37943 13.2312 6.32057 13.2344 6.25992C13.2468 5.85384 13.1952 5.52507 13.0344 5.15138C13.0211 5.11966 13.0079 5.08794 12.9942 5.05526C12.8964 4.8875 12.7361 4.83178 12.5578 4.77008C12.4136 4.74496 12.2749 4.74271 12.1288 4.74625C12.0892 4.74696 12.0495 4.74768 12.0087 4.74841C10.0225 4.81629 8.17959 6.33984 6.74289 7.5822C6.71325 7.6078 6.68361 7.63341 6.65308 7.65978C6.00352 8.22421 5.34687 8.81109 4.8103 9.48556C4.72673 9.59002 4.64229 9.69248 4.5556 9.79426C4.01251 10.4376 3.53326 11.1381 3.12049 11.8719C3.08084 11.9366 3.04085 12.001 3.00059 12.0653C2.25234 13.2613 1.46186 14.7985 1.76917 16.261C1.86974 16.5472 1.99978 16.6807 2.26256 16.8288C2.30974 16.8446 2.35693 16.8603 2.40555 16.8765C2.32337 17.0857 2.17534 17.2061 1.97658 17.3055C1.45417 17.3483 1.04061 17.2984 0.630095 16.9599C0.215011 16.565 0.0263179 16.1919 0.000781401 15.6175C-0.0215777 14.4678 0.439071 13.3456 0.975652 12.3485C0.992234 12.3173 1.00881 12.286 1.0259 12.2538C1.29321 11.7523 1.59759 11.2846 1.92891 10.8233C1.96813 10.7684 1.96813 10.7684 2.00814 10.7124C2.35382 10.2301 2.71356 9.76845 3.10539 9.323C3.19889 9.21486 3.28757 9.10301 3.37668 8.99124C3.83339 8.4326 4.34612 7.92425 4.85429 7.41294C4.91316 7.35368 4.97197 7.29434 5.0307 7.23494C5.36386 6.89834 5.69951 6.5844 6.0756 6.2953C6.12609 6.25295 6.17623 6.21018 6.22585 6.16683C8.27284 4.3811 12.0674 1.89409 14.7026 3.91214Z" fill="#9575CD"/>
<path d="M33.7024 24.3477C33.7632 24.3479 33.8241 24.3482 33.8869 24.3484C35.0107 24.3575 35.0107 24.3575 35.5404 24.5026C35.5781 24.5129 35.6159 24.5232 35.6547 24.5338C36.5885 24.8043 37.3456 25.3217 38.0499 25.9801C38.1459 26.069 38.2452 26.1508 38.3465 26.2334C38.9273 26.7441 39.2964 27.4996 39.5977 28.1995C39.6126 28.2337 39.6276 28.2679 39.6429 28.3032C39.9332 29.0028 40.0025 29.6473 39.9998 30.3979C39.9999 30.4685 39.9999 30.4685 40 30.5405C39.9981 31.3665 39.8837 32.0702 39.5828 32.8436C39.5636 32.8962 39.5444 32.9488 39.5246 33.003C39.4136 33.3034 39.2954 33.5816 39.1211 33.8505C39.1008 33.8824 39.0805 33.9143 39.0597 33.9471C38.8657 34.2442 38.637 34.4946 38.3912 34.7502C38.3529 34.7993 38.3145 34.8485 38.275 34.8991C38.0821 35.1156 37.8577 35.2882 37.6286 35.4651C37.6032 35.4848 37.5778 35.5045 37.5516 35.5248C36.9073 36.0194 36.2037 36.3508 35.4361 36.609C35.3795 36.6288 35.3228 36.6486 35.2644 36.669C34.2603 36.9818 33.1711 36.79 32.195 36.466C32.1625 36.4555 32.13 36.4449 32.0965 36.434C31.5943 36.2684 31.1591 36.0401 30.7175 35.7511C30.6899 35.7334 30.6623 35.7158 30.6338 35.6976C29.3607 34.8809 28.5378 33.5361 28.1913 32.081C28.1828 32.0452 28.1742 32.0093 28.1654 31.9723C28.0872 31.6036 28.0814 31.2391 28.0836 30.8641C28.0841 30.7592 28.0836 30.6544 28.083 30.5495C28.0822 29.9074 28.1369 29.2933 28.3581 28.685C28.3747 28.6386 28.3913 28.5922 28.4084 28.5444C28.7534 27.6116 29.2664 26.7928 29.9548 26.0755C29.9861 26.0423 30.0174 26.0091 30.0496 25.9749C30.6886 25.3141 31.5946 24.6724 32.5255 24.5236C32.6372 24.5035 32.6372 24.5035 32.783 24.4296C33.0788 24.3162 33.3904 24.3427 33.7024 24.3477ZM32.052 25.8848C31.9985 25.9125 31.945 25.9403 31.8899 25.9688C31.7671 26.0331 31.6472 26.1006 31.5277 26.1708C31.4743 26.2016 31.4743 26.2016 31.4197 26.233C31.2202 26.3519 31.071 26.4798 30.9081 26.6474C30.8021 26.7549 30.6957 26.862 30.5894 26.9692C30.5617 26.9972 30.534 27.0253 30.5055 27.0542C30.2993 27.2617 30.3362 27.2194 30.217 27.3147C30.1726 27.3876 30.1076 27.4625 30.068 27.5381C29.9879 27.6906 29.907 27.8394 29.8154 27.9853C29.6054 28.3238 29.4605 28.66 29.3382 29.0395C29.3242 29.0825 29.3101 29.1255 29.2957 29.1698C29.1398 29.6784 29.1351 30.1882 29.1327 30.7167C29.1317 30.7705 29.1307 30.8243 29.1297 30.8798C29.124 32.1107 29.6911 33.276 30.5363 34.1404C30.9858 34.6021 30.9858 34.6021 31.5277 34.9408C31.5814 34.9673 31.635 34.9938 31.6903 35.0211C32.0729 35.2063 32.4502 35.3557 32.8623 35.4651C32.9082 35.4781 32.9082 35.4781 32.955 35.4914C33.8032 35.7306 34.7236 35.7868 35.5182 35.3538C35.8127 35.2042 36.1265 35.0996 36.437 34.9885C36.437 34.957 36.4847 34.9494 36.4847 34.917C36.518 34.9056 36.5036 34.8704 36.5379 34.8587C36.6984 34.7876 36.8299 34.6935 36.9673 34.5863C37.0075 34.5552 37.0075 34.5552 37.0485 34.5234C37.3691 34.2697 37.6695 33.9863 37.9233 33.6653C38.0099 33.5586 38.0099 33.5586 38.1052 33.5109C38.6267 32.6102 38.8765 31.7197 38.8793 30.6879C38.8798 30.583 38.8812 30.4781 38.8827 30.3733C38.8856 29.9971 38.8542 29.6727 38.7249 29.3166C38.7081 29.2524 38.6923 29.188 38.6776 29.1233C38.4813 28.2739 38.1318 27.5414 37.4856 26.9334C37.4384 26.9177 37.4627 26.8781 37.4141 26.8619C37.4141 26.8305 37.3426 26.8228 37.3426 26.7904C37.2623 26.7092 37.2623 26.7092 37.1609 26.6266C36.9689 26.4647 36.9689 26.4647 36.887 26.3797C36.7919 26.2884 36.6798 26.2412 36.5618 26.185C36.4655 26.1372 36.3706 26.0865 36.2765 26.0345C36.2471 26.0183 36.2177 26.002 36.1874 25.9853C36.1299 25.9535 36.0727 25.9213 36.0156 25.8887C35.9193 25.8358 35.8217 25.7883 35.7221 25.7418C35.6553 25.7102 35.6553 25.7102 35.5872 25.678C35.1067 25.4777 34.6502 25.4622 34.1352 25.4646C33.9951 25.4648 33.8553 25.4617 33.7152 25.4584C33.0783 25.4523 32.6087 25.5801 32.052 25.8848Z" fill="#9575CD"/>
<path d="M31.2894 31.1278C31.5701 31.2676 31.6465 31.4325 31.7571 31.7086C32.0095 32.2845 32.3825 32.6277 32.9576 32.8913C33.5885 33.123 34.4325 33.1411 35.0583 32.8771C35.3205 32.7313 35.5182 32.5865 35.722 32.367C35.7535 32.367 35.8803 32.1525 35.9127 32.1525C35.8944 32.191 35.9306 32.1148 35.9127 32.1525C35.9875 32.0078 36.0123 32.0084 36.0974 31.8695C36.1297 31.8165 36.162 31.7635 36.1953 31.7088C36.3229 31.5121 36.4315 31.3538 36.6276 31.2231C36.8076 31.1905 36.9838 31.1825 37.1465 31.2732C37.2493 31.3575 37.3305 31.4372 37.3902 31.5567C37.4209 32.0285 37.1855 32.4313 36.8998 32.79C36.7961 32.9065 36.6897 33.0188 36.58 33.1296C36.5406 33.1719 36.5013 33.2141 36.4608 33.2577C36.01 33.6747 35.4517 34.1674 34.8164 34.1782C34.8007 34.1939 34.785 34.162 34.7688 34.1782C34.6553 34.1848 34.5433 34.1884 34.4297 34.1896C34.3779 34.1901 34.3779 34.1901 34.325 34.1907C34.2514 34.1914 34.1778 34.1919 34.1042 34.1923C33.9935 34.1931 33.8829 34.1952 33.7722 34.1973C32.895 34.2065 32.2388 33.8853 31.5753 33.3203C31.5414 33.2933 31.5075 33.2663 31.4726 33.2385C31.0756 32.9141 30.7842 32.4721 30.6221 31.9857C30.5788 31.4873 30.5788 31.4873 30.7114 31.2618C30.8867 31.1123 31.0645 31.0855 31.2894 31.1278Z" fill="#9575CD"/>
<path d="M35.9127 28.3156C36.1559 28.4232 36.2759 28.5852 36.3935 28.8165C36.5085 29.1301 36.4526 29.4407 36.338 29.7466C36.2473 29.9411 36.1371 30.0567 35.9604 30.1745C35.7385 30.2068 35.5454 30.208 35.3467 30.1C35.0713 29.784 34.9898 29.5078 34.9939 29.0943C35.0175 28.81 35.1261 28.6113 35.3259 28.411C35.531 28.2871 35.6791 28.2719 35.9127 28.3156Z" fill="#9575CD"/>
<path d="M32.7193 28.3156C32.9247 28.3904 33.0424 28.5321 33.1505 28.7174C33.2719 29.0449 33.245 29.4302 33.1155 29.7515C33.0101 29.9532 32.875 30.0728 32.6716 30.1745C32.4755 30.2015 32.3573 30.2146 32.1855 30.1118C31.9374 29.9068 31.7933 29.7115 31.7496 29.3847C31.7286 29.0082 31.8346 28.7634 32.0687 28.4745C32.2627 28.2811 32.4635 28.2739 32.7193 28.3156Z" fill="#9575CD"/>
</g>
<defs>
<clipPath id="clip0_203_754">
<rect width="40" height="40" fill="white"/>
</clipPath>
</defs>
</svg>
